<svg xmlns="http://www.w3.org/2000/svg" viewBox="0 0 512 512">
<rect width="512" height="512" rx="96" fill="#2C2520"/>
<g transform="translate(256,200)">
<ellipse cx="-18" cy="-62" rx="12" ry="42" fill="#C8553D" transform="rotate(-12,-18,-62)"/>
<ellipse cx="-18" cy="-62" rx="7" ry="32" fill="#4A3728" transform="rotate(-12,-18,-62)"/>
<ellipse cx="18" cy="-62" rx="12" ry="42" fill="#C8553D" transform="rotate(12,18,-62)"/>
<ellipse cx="18" cy="-62" rx="7" ry="32" fill="#4A3728" transform="rotate(12,18,-62)"/>
<circle cx="0" cy="-14" r="28" fill="#C8553D"/>
<ellipse cx="0" cy="-10" rx="4" ry="3" fill="#4A3728"/>
<ellipse cx="0" cy="22" rx="24" ry="19" fill="#C8553D"/>
</g>
<g transform="translate(300,220)">
<circle cx="0" cy="0" r="14" fill="#4A7C59"/>
<polyline points="-5 0 -1.5 4 6 -4" fill="none" stroke="#FFF" stroke-width="2.5" stroke-linecap="round" stroke-linejoin="round"/>
</g>
<text x="256" y="340" text-anchor="middle" font-family="Georgia,serif" font-size="28" fill="#C8553D" font-weight="700" letter-spacing="1">Toca do</text>
<text x="256" y="375" text-anchor="middle" font-family="Georgia,serif" font-size="28" fill="#C8553D" font-weight="700" letter-spacing="1">Coelho</text>
<text x="256" y="405" text-anchor="middle" font-family="Helvetica,sans-serif" font-size="12" fill="#8C7E72" letter-spacing="3">CHECKLIST</text>
</svg>
